<?xml version="1.0" encoding="utf-8"?>
<!-- Generator: Adobe Illustrator 24.1.0, SVG Export Plug-In . SVG Version: 6.00 Build 0)  -->
<svg version="1.1" id="Layer_1" xmlns="http://www.w3.org/2000/svg" xmlns:xlink="http://www.w3.org/1999/xlink" x="0px" y="0px"
	 viewBox="0 0 16 16" style="enable-background:new 0 0 16 16;" xml:space="preserve">
<style type="text/css">
	.st0{fill:#FFFFFF;}
	.st1{fill:#999999;}
	.st2{fill:#474A56;}
</style>
<path class="st0" d="M1,1h14v14H1V1z"/>
<path class="st1" d="M1,1v14h14V1H1z M2,2h12v12H2V2z"/>
<g>
	<path class="st2" d="M12.6,4.8H9.4L9.3,5.5h2.9v5.8H3.9V5.5h3L6.8,4.8H3.5c-0.2,0-0.3,0.2-0.3,0.3v6.5c0,0.2,0.2,0.3,0.3,0.3h9
		c0.2,0,0.3-0.2,0.3-0.3V5.1C12.9,4.9,12.8,4.8,12.6,4.8z"/>
	<path class="st2" d="M5.6,7.5c0,0.1,0,0.2,0,0.3c-0.1,0-0.1,0.1-0.1,0.1c0,0.1,0.1,0.2,0.1,0.2l0,0c0,0.4,0.4,0.8,0.7,0.8
		c0.4,0,0.7-0.4,0.7-0.8l0,0c0.1,0,0.1-0.1,0.1-0.2c0-0.1,0-0.1-0.1-0.1c0-0.1,0-0.2,0-0.3c0-0.5-0.4-0.9-0.8-0.9
		C6,6.6,5.6,7,5.6,7.5z"/>
	<path class="st2" d="M7.1,9.2L7.1,9.2C7,9.2,7,9.2,7.1,9.2C6.8,9.3,6.7,9.3,6.5,9.3S6.1,9.3,6,9.2c0,0,0,0,0,0h0h0
		C5.4,9.3,5,9.6,4.7,9.9c0,0,0,0,0,0.1v0.3c0,0,0,0.1,0.1,0.1h3.6c0,0,0.1,0,0.1-0.1V9.9c0,0,0,0,0-0.1C8,9.6,7.6,9.3,7.1,9.2
		C7.1,9.2,7.1,9.2,7.1,9.2z"/>
	<path class="st2" d="M7.5,5.7C7.5,5.9,7.6,6,7.8,6h0.6c0.2,0,0.3-0.1,0.3-0.3l0-0.2l0,0L8.8,5l0.1-1c0-0.1,0-0.2-0.1-0.3
		C8.8,3.7,8.7,3.6,8.6,3.6h-1c-0.1,0-0.2,0-0.3,0.1C7.3,3.8,7.3,3.9,7.3,4L7.5,5.7z"/>
	<path class="st2" d="M11.4,8.9H8.8C8.8,8.9,8.7,8.9,8.7,9c0,0.1,0.1,0.1,0.1,0.1h2.5c0.1,0,0.1-0.1,0.1-0.1
		C11.5,8.9,11.4,8.9,11.4,8.9z"/>
	<path class="st2" d="M11.4,7.8H8.8c-0.1,0-0.1,0.1-0.1,0.1c0,0.1,0.1,0.1,0.1,0.1h2.5c0.1,0,0.1-0.1,0.1-0.1
		C11.5,7.9,11.4,7.8,11.4,7.8z"/>
</g>
</svg>
